<svg width="14" height="14" viewBox="0 0 14 14" fill="none" xmlns="http://www.w3.org/2000/svg">
<path d="M6.70835 12.6875C3.41252 12.6875 0.729187 10.0042 0.729187 6.70834C0.729187 3.41251 3.41252 0.729172 6.70835 0.729172C10.0042 0.729172 12.6875 3.41251 12.6875 6.70834C12.6875 10.0042 10.0042 12.6875 6.70835 12.6875ZM6.70835 1.60417C3.89085 1.60417 1.60419 3.89667 1.60419 6.70834C1.60419 9.52001 3.89085 11.8125 6.70835 11.8125C9.52585 11.8125 11.8125 9.52001 11.8125 6.70834C11.8125 3.89667 9.52585 1.60417 6.70835 1.60417Z" fill="#00E5CC"/>
<path d="M12.8334 13.2708C12.7225 13.2708 12.6117 13.23 12.5242 13.1425L11.3575 11.9758C11.1884 11.8067 11.1884 11.5267 11.3575 11.3575C11.5267 11.1883 11.8067 11.1883 11.9759 11.3575L13.1425 12.5242C13.3117 12.6933 13.3117 12.9733 13.1425 13.1425C13.055 13.23 12.9442 13.2708 12.8334 13.2708Z" fill="#00E5CC"/>
</svg>
